<mxfile host="app.diagrams.net" agent="Mozilla/5.0 (Windows NT 10.0; Win64; x64) AppleWebKit/537.36 (KHTML, like Gecko) Chrome/129.0.0.0 Safari/537.36" version="24.7.17">
  <diagram name="Página-1" id="XHVfud3kaqmso6C1GxE9">
    <mxGraphModel dx="1434" dy="780" grid="1" gridSize="10" guides="1" tooltips="1" connect="1" arrows="1" fold="1" page="1" pageScale="1" pageWidth="827" pageHeight="1169" math="0" shadow="0">
      <root>
        <mxCell id="0" />
        <mxCell id="1" parent="0" />
        <mxCell id="tTbhpc6ubinyVYFcU7Is-7" style="edgeStyle=orthogonalEdgeStyle;rounded=0;orthogonalLoop=1;jettySize=auto;html=1;" edge="1" parent="1" source="tTbhpc6ubinyVYFcU7Is-1" target="tTbhpc6ubinyVYFcU7Is-2">
          <mxGeometry relative="1" as="geometry" />
        </mxCell>
        <mxCell id="tTbhpc6ubinyVYFcU7Is-1" value="inicio" style="ellipse;whiteSpace=wrap;html=1;aspect=fixed;" vertex="1" parent="1">
          <mxGeometry x="180" y="140" width="80" height="80" as="geometry" />
        </mxCell>
        <mxCell id="tTbhpc6ubinyVYFcU7Is-15" style="edgeStyle=orthogonalEdgeStyle;rounded=0;orthogonalLoop=1;jettySize=auto;html=1;entryX=0;entryY=0.25;entryDx=0;entryDy=0;" edge="1" parent="1" source="tTbhpc6ubinyVYFcU7Is-2" target="tTbhpc6ubinyVYFcU7Is-12">
          <mxGeometry relative="1" as="geometry" />
        </mxCell>
        <mxCell id="tTbhpc6ubinyVYFcU7Is-2" value="Cadeia oi = &quot;Olá mundo&quot;" style="shape=parallelogram;perimeter=parallelogramPerimeter;whiteSpace=wrap;html=1;fixedSize=1;" vertex="1" parent="1">
          <mxGeometry x="160" y="280" width="120" height="60" as="geometry" />
        </mxCell>
        <mxCell id="tTbhpc6ubinyVYFcU7Is-6" value="Fim" style="ellipse;whiteSpace=wrap;html=1;aspect=fixed;" vertex="1" parent="1">
          <mxGeometry x="420" y="440" width="80" height="80" as="geometry" />
        </mxCell>
        <mxCell id="tTbhpc6ubinyVYFcU7Is-13" style="edgeStyle=orthogonalEdgeStyle;rounded=0;orthogonalLoop=1;jettySize=auto;html=1;entryX=0.5;entryY=0;entryDx=0;entryDy=0;" edge="1" parent="1" source="tTbhpc6ubinyVYFcU7Is-12" target="tTbhpc6ubinyVYFcU7Is-6">
          <mxGeometry relative="1" as="geometry" />
        </mxCell>
        <mxCell id="tTbhpc6ubinyVYFcU7Is-12" value="oi" style="shape=document;whiteSpace=wrap;html=1;boundedLbl=1;" vertex="1" parent="1">
          <mxGeometry x="400" y="290" width="120" height="80" as="geometry" />
        </mxCell>
      </root>
    </mxGraphModel>
  </diagram>
</mxfile>
